<svg xmlns="http://www.w3.org/2000/svg" viewBox="0 0 100 100">
  <rect width="100" height="100" rx="22" fill="#1f2226" stroke="#2c2f33" stroke-width="2"/>
  <!-- Telemetry Radio Waves radiating from the camper rig -->
  <path d="M 50 45 A 15 15 0 0 1 65 60" stroke="#ff780a" stroke-width="5" fill="none" stroke-linecap="round"/>
  <path d="M 50 35 A 25 25 0 0 1 75 60" stroke="#ff780a" stroke-width="4" fill="none" stroke-linecap="round"/>
  <path d="M 35 60 A 15 15 0 0 1 50 45" stroke="#ff780a" stroke-width="5" fill="none" stroke-linecap="round"/>
  <path d="M 25 60 A 25 25 0 0 1 50 35" stroke="#ff780a" stroke-width="4" fill="none" stroke-linecap="round"/>
  
  <!-- Stylized Retro Camper Van Body -->
  <path d="M 32 72 L 68 72 L 68 58 L 56 58 L 50 52 L 32 52 Z" fill="#ffffff"/>
  <!-- Van windows -->
  <rect x="36" y="55" width="8" height="6" rx="1" fill="#161719"/>
  <path d="M 47 55 L 52 55 L 54 58 L 47 58 Z" fill="#161719"/>
  
  <!-- Bright Orange Active Wheels -->
  <circle cx="41" cy="74" r="5.5" fill="#ff780a"/>
  <circle cx="41" cy="74" r="2.5" fill="#ffffff"/>
  <circle cx="59" cy="74" r="5.5" fill="#ff780a"/>
  <circle cx="59" cy="74" r="2.5" fill="#ffffff"/>
</svg>
